<?xml version="1.0" encoding="UTF-8" standalone="no"?>
<svg
   width="329.99997pt"
   height="329.99997pt"
   viewBox="0 0 329.99997 329.99997"
   version="1.2"
   id="svg168"
   sodipodi:docname="LEB_logo.svg"
   inkscape:version="1.2.2 (b0a8486541, 2022-12-01)"
   inkscape:export-filename="../../Code/mararigidity/MARA.png"
   inkscape:export-xdpi="54.549999"
   inkscape:export-ydpi="54.549999"
   xml:space="preserve"
   xmlns:inkscape="http://www.inkscape.org/namespaces/inkscape"
   xmlns:sodipodi="http://sodipodi.sourceforge.net/DTD/sodipodi-0.dtd"
   xmlns="http://www.w3.org/2000/svg"
   xmlns:svg="http://www.w3.org/2000/svg"
   xmlns:rdf="http://www.w3.org/1999/02/22-rdf-syntax-ns#"
   xmlns:cc="http://creativecommons.org/ns#"
   xmlns:dc="http://purl.org/dc/elements/1.1/"><metadata
     id="metadata172"><rdf:RDF><cc:Work
         rdf:about=""><dc:format>image/svg+xml</dc:format><dc:type
           rdf:resource="http://purl.org/dc/dcmitype/StillImage" /></cc:Work></rdf:RDF></metadata><sodipodi:namedview
     pagecolor="#ffffff"
     bordercolor="#666666"
     borderopacity="1"
     objecttolerance="10"
     gridtolerance="10"
     guidetolerance="10"
     inkscape:pageopacity="0"
     inkscape:pageshadow="2"
     inkscape:window-width="1906"
     inkscape:window-height="1021"
     id="namedview170"
     showgrid="false"
     inkscape:zoom="1.1"
     inkscape:cx="90.909092"
     inkscape:cy="130"
     inkscape:window-x="5"
     inkscape:window-y="50"
     inkscape:window-maximized="1"
     inkscape:current-layer="g1180"
     inkscape:pagecheckerboard="1"
     inkscape:document-units="pt"
     inkscape:showpageshadow="0"
     inkscape:deskcolor="#d1d1d1" /><defs
     id="defs35"><clipPath
       id="clip1"><path
         d="M 337,17 H 533.50391 V 121 H 337 Z m 0,0"
         id="path2"
         inkscape:connector-curvature="0" /></clipPath><clipPath
       id="clip2"><path
         d="m 503,0 h 30.50391 V 27 H 503 Z m 0,0"
         id="path5"
         inkscape:connector-curvature="0" /></clipPath><clipPath
       id="clip3"><path
         d="m 491,33 h 42.50391 v 69 H 491 Z m 0,0"
         id="path8"
         inkscape:connector-curvature="0" /></clipPath><clipPath
       id="clip4"><path
         d="M 337,258 H 533.50391 V 362 H 337 Z m 0,0"
         id="path11"
         inkscape:connector-curvature="0" /></clipPath><clipPath
       id="clip5"><path
         d="m 504,241 h 29.50391 v 28 H 504 Z m 0,0"
         id="path14"
         inkscape:connector-curvature="0" /></clipPath><clipPath
       id="clip6"><path
         d="m 491,274 h 42.50391 v 70 H 491 Z m 0,0"
         id="path17"
         inkscape:connector-curvature="0" /></clipPath><clipPath
       id="clip7"><path
         d="M 320,516 H 447 V 642.14844 H 320 Z m 0,0"
         id="path20"
         inkscape:connector-curvature="0" /></clipPath><clipPath
       id="clip8"><path
         d="M 337,498 H 533.50391 V 602 H 337 Z m 0,0"
         id="path23"
         inkscape:connector-curvature="0" /></clipPath><clipPath
       id="clip9"><path
         d="m 504,481 h 29.50391 v 28 H 504 Z m 0,0"
         id="path26"
         inkscape:connector-curvature="0" /></clipPath><clipPath
       id="clip10"><path
         d="m 491,514 h 42.50391 v 69 H 491 Z m 0,0"
         id="path29"
         inkscape:connector-curvature="0" /></clipPath><clipPath
       id="clip11"><path
         d="M 12,516 H 139 V 642.14844 H 12 Z m 0,0"
         id="path32"
         inkscape:connector-curvature="0" /></clipPath><clipPath
       id="clip4-3"><path
         d="M 337,258 H 533.50391 V 362 H 337 Z m 0,0"
         id="path11-6"
         inkscape:connector-curvature="0" /></clipPath><clipPath
       id="clip5-7"><path
         d="m 504,241 h 29.50391 v 28 H 504 Z m 0,0"
         id="path14-5"
         inkscape:connector-curvature="0" /></clipPath><clipPath
       id="clip6-3"><path
         d="m 491,274 h 42.50391 v 70 H 491 Z m 0,0"
         id="path17-5"
         inkscape:connector-curvature="0" /></clipPath></defs><g
     id="g1213"
     transform="matrix(0.57292006,0,0,0.57292006,-181.25704,98.780966)"><circle
       style="fill:#ffffff;fill-opacity:1;stroke:none;stroke-width:8.18359;stroke-linecap:round;stroke-dasharray:none;stroke-opacity:1"
       id="path3153"
       cx="604.37231"
       cy="115.5816"
       r="287.99826" /><path
       id="rect870-3-6"
       style="fill:#2c60a0;fill-opacity:0.73010427;stroke:#2c60a0;stroke-width:6.98178;stroke-linecap:round;stroke-dasharray:none;stroke-opacity:1"
       d="M 592.1486,0.35799 A 115.22454,115.22454 0 0 0 476.92371,115.58288 115.22454,115.22454 0 0 0 592.1486,230.80521 115.22454,115.22454 0 0 0 707.37093,115.58288 115.22454,115.22454 0 0 0 592.1486,0.35799 Z m 198.37723,27.14558 c -27.89676,0.33143 -53.47101,10.0183 -84.82705,23.75014 l 13.46157,35.322237 C 765.59262,70.273074 812.97287,67.2257 861.83763,84.921696 L 875.36823,52.1307 C 841.56312,34.20369 815.14063,27.21113 790.52583,27.50357 Z m -409.92967,1.16335 v 173.82936 h 44.43212 V 28.66692 Z m 48.1625,0 v 173.82936 h 44.43212 V 28.66692 Z M 332.4311,65.07579 v 101.01162 h 44.43213 V 65.07579 Z" /><g
       id="g1180"
       transform="matrix(1.5710563,0,0,1.5710563,-491.29692,-138.29147)"
       style="stroke:#ffffff"><path
         inkscape:export-ydpi="479.78"
         inkscape:export-xdpi="479.78"
         style="fill:#ed5858;fill-opacity:0.95415515;fill-rule:nonzero;stroke:#ffffff;stroke-width:2.19563"
         d="m 561.97085,131.49877 c -10.24053,2.46149 -13.6369,9.89747 -14.47741,17.31629 v 41.60539 h 20.65261 v -27.24806 c 0.2916,-4.76861 3.38779,-5.7292 5.74637,-5.8836 h 11.9816 v 16.32997 h 20.65261 v -16.32997 h 11.9816 c 2.36717,0.15435 5.45477,1.11499 5.74637,5.8836 v 27.24806 h 20.65261 v -41.60539 c -0.84051,-7.41882 -4.23688,-14.8548 -14.46883,-17.31629 -27.72836,0.19717 -25.18109,-3.42208 -34.23804,12.26464 -8.65387,-14.99203 -7.39309,-12.26464 -34.22949,-12.26464 z m 0,0"
         id="path105"
         inkscape:connector-curvature="0" /><path
         inkscape:export-ydpi="479.78"
         inkscape:export-xdpi="479.78"
         style="fill:#ed5858;fill-opacity:0.95415515;fill-rule:nonzero;stroke:#ffffff;stroke-width:2.19563"
         d="m 662.36929,131.49877 c -10.23195,2.46149 -13.62832,9.89747 -14.46883,17.31629 v 41.60539 h 20.65261 v -5.51479 h 23.46576 v 5.51479 h 20.66119 v -41.60539 c -0.84909,-7.41882 -4.23688,-14.8548 -14.47741,-17.31629 z m 11.93015,25.79002 h 11.9816 c 2.35859,0.15435 5.44618,1.11499 5.73779,5.8836 v 1.09781 h -23.46576 v -1.09781 c 0.2916,-4.76861 3.3792,-5.7292 5.74637,-5.8836 z m 0,0"
         id="path107"
         inkscape:connector-curvature="0" /><path
         inkscape:export-ydpi="479.78"
         inkscape:export-xdpi="479.78"
         style="fill:#ed5858;fill-opacity:0.95415515;fill-rule:nonzero;stroke:#ffffff;stroke-width:2.19563"
         d="m 730.13354,131.49877 c -10.23197,2.46149 -13.62834,9.89747 -14.46885,17.31629 v 41.60539 h 20.65261 v -5.51479 h 23.46575 v 5.51479 h 20.6612 c 1.47517,-9.62301 -5.04309,-11.22685 -12.3504,-16.3214 15.1721,-9.64874 12.3504,-7.83906 12.3504,-25.28399 -0.84051,-7.41882 -4.23688,-14.8548 -14.46885,-17.31629 z m 11.93013,25.79002 h 11.9816 c 2.35858,0.15435 5.45477,1.11499 5.73778,5.8836 v 1.09781 H 736.3173 v -1.09781 c 0.2916,-4.76861 3.38778,-5.7292 5.74637,-5.8836 z m 0,0"
         id="path109"
         inkscape:connector-curvature="0" /><g
         inkscape:export-ydpi="479.78"
         inkscape:export-xdpi="479.78"
         transform="matrix(2.1956262,0,0,2.1956262,-322.95227,-398.92504)"
         clip-path="url(#clip5)"
         id="g113"
         style="clip-rule:nonzero;fill:#ed5858;fill-opacity:0.95415515;stroke:#ffffff"><path
           style="fill:#ed5858;fill-opacity:0.95415515;fill-rule:nonzero;stroke:#ffffff"
           d="m 510.58984,241.58203 c -4.66015,1.12109 -6.20703,4.50781 -6.58984,7.88672 v 18.94922 h 9.40625 v -2.51172 h 10.6875 v 2.51172 h 9.41016 v -18.94922 c -0.38672,-3.37891 -1.92969,-6.76563 -6.59375,-7.88672 z m 5.4336,11.74609 h 5.45703 c 1.07422,0.0703 2.48047,0.50782 2.61328,2.67969 v 0.5 h -10.6875 v -0.5 c 0.13281,-2.17187 1.53906,-2.60937 2.61719,-2.67969 z m 0,0"
           id="path111"
           inkscape:connector-curvature="0" /></g></g></g></svg>
